#!OML:ASF F:\VICON\USERDATA\INSTALL\rory3\rory3.ASF
:FULLY-SPECIFIED
:DEGREES
43
root 0.6019920342079158 17.846383488643337 1.6991480657882923 -1.1614752159420871 1.9381131443042696 2.1215154423506806
lfemur 11.336286016082367 -2.9590319571248793 -27.007468424082607
ltibia 22.074012075775478
lfoot -5.114137376050564 -3.9074585599658214
ltoes -3.3077010684526456
rfemur -27.170916442281627 7.329353664998569 16.47459331248819
rtibia 29.247584233276854
rfoot -9.755968973131719 -11.802748359736338
rtoes 2.988163206329808
lowerback 9.77618414905788 -1.3589303053850585 -4.183591050160939
upperback 0.4141678707351923 -1.9635474229602754 1.4327138419040637
thorax -4.634457660917583 -0.7189589010447914 3.82808783001322
lowerneck -16.06478536536943 -2.7830144383570756 -2.196575545232031
upperneck 22.86605638920754 -3.404400519350146 0.42976536914646285
head 9.680729740141699 -1.624755758074434 0.03130783047120614
lclavicle -1.387967968396153e-15 -1.8442003040118174e-15
lhumerus -22.815441722185334 -1.2011131043367484 81.24944041486467
lradius 29.529496392825866
lwrist 6.789390368944213
lhand -27.318562690223963 23.913190909297647
lfingers 7.125019999999999
lthumb -0.623363753929413 54.04110926564811
rclavicle -1.388973382564324e-15 -1.845134554101163e-15
rhumerus -35.46484725068544 -28.232346240249914 -72.71188037507393
rradius 24.10093461562156
rwrist 6.601366914300132
rhand -18.395478801969183 22.73119094681702
rfingers 7.125019999999999
rthumb 7.810163088225746 -7.172118929874494
44
root 0.5317693693386598 17.819298015756882 2.414882985130447 -1.2185218054034832 1.9585226261574091 1.8165432720866348
lfemur 12.804574485351504 -3.996478002714516 -26.327302875183562
ltibia 23.10759830215727
lfoot -2.694275020446163 -5.629277004528332
ltoes -3.7587737741787866
rfemur -27.477838211123597 6.060809386726451 17.46015081305378
rtibia 31.828324016870088
rfoot -9.257458814142844 -10.368211239668193
rtoes 3.5114717762240377
lowerback 9.673226930351047 -1.336811273423418 -3.693123768687861
upperback 0.3537169730272505 -1.8471349763963443 1.6507059711073375
thorax -4.686542008895547 -0.7278618556416858 3.7247840798014042
lowerneck -16.162373019785075 -2.7127012015763476 -2.213772177470787
upperneck 22.868589165457237 -3.2357275535172607 0.4245021659497113
head 9.675072858092545 -1.5961746484752928 0.019525559910755164
lclavicle -1.3879679677954546e-15 -1.844200303453637e-15
lhumerus -23.80435811562322 -0.5364501586956556 81.58390997920742
lradius 28.682787497264208
lwrist 6.529377222764171
lhand -27.27605321965309 24.044752577372638
lfingers 7.125019999999999
lthumb -0.6281656023506743 54.106304530430876
rclavicle -1.3889733824600073e-15 -1.8451345540042296e-15
rhumerus -36.265394468937394 -29.834003680648266 -71.09654210277883
rradius 23.4220381947432
rwrist 7.557033354793698
rhand -18.429471267076703 22.780133155401597
rfingers 7.125019999999999
rthumb 7.788689556300949 -7.112714108359068
45
root 0.47149929320208184 17.827971004027603 3.543065848261775 -1.4083020883646389 1.809640343210951 1.173659867779656
lfemur 13.249634302615751 -5.505425546154596 -25.470983594393985
ltibia 26.30198868544953
lfoot -1.6950590357088435 -6.959894502264566
ltoes -3.59484503654159
rfemur -27.03249286069292 5.256481822050426 19.170257221010143
rtibia 34.40137225929092
rfoot -8.181240878058716 -8.784829658978165
rtoes 4.020146242328383
lowerback 9.527720743925629 -1.3154990050817859 -2.9145757707328857
upperback 0.29883730013282195 -1.6520501477960363 1.9127858155343804
thorax -4.771329219044385 -0.6864393664023547 3.4859270270639797
lowerneck -16.22740407257795 -2.64992674682083 -2.209847529729927
upperneck 22.872946824194685 -3.0715666344993684 0.4128981890800466
head 9.658598160492659 -1.585496206433543 -0.00979557081447796
lclavicle -1.3879679684616117e-15 -1.844200304072643e-15
lhumerus -25.275914122079204 0.08004223021141543 81.96528970825685
lradius 27.718078956056086
lwrist 6.048924437170472
lhand -27.424459982906374 23.83911962122049
lfingers 7.125019999999999
lthumb -0.7192916868280317 54.01615632525743
rclavicle -1.3889733822867705e-15 -1.8451345538432546e-15
rhumerus -36.90428881176912 -31.45790368015468 -69.44038495939738
rradius 22.73455463280419
rwrist 8.71737153320776
rhand -18.447345321236327 22.798315804174408
rfingers 7.125019999999999
rthumb 7.7801886574613945 -7.080896249169679
46
root 0.408074425383526 17.86721170454139 4.377116949473873 -1.6969926832458042 1.5327421324391184 0.1362608335733464
lfemur 12.192065912744686 -6.47525650314979 -24.02624243321978
ltibia 31.7381201662197
lfoot -1.3441156040179347 -7.679049465896906
ltoes -3.348502395114963
rfemur -25.85468246117931 5.076990214732417 20.99374365805795
rtibia 36.49557403590031
rfoot -6.9952039066900555 -7.122046759426847
rtoes 4.7383914601256505
lowerback 9.422527002994462 -1.243131383822504 -1.7296376995034857
upperback 0.26722914497562567 -1.3818713655763244 2.1850265352669997
thorax -4.853758805397629 -0.5937987111705059 3.179126191942938
lowerneck -16.25514670103025 -2.6159007672007646 -2.2406330197598807
upperneck 22.75838109344726 -2.9987045252321316 0.3770176319813466
head 9.646233004819091 -1.5813329624648138 -0.015374334045287708
lclavicle -1.387967968680538e-15 -1.8442003042760732e-15
lhumerus -27.029368587675876 0.5271467894684632 82.30224797228637
lradius 26.75973595943575
lwrist 5.528614182963531
lhand -27.479040471427098 23.84953243194239
lfingers 7.125019999999999
lthumb -0.7618852153713823 54.01566838773884
rclavicle -1.388973382224911e-15 -1.8451345537857735e-15
rhumerus -37.16602177320846 -32.6745125147959 -68.12896129603793
rradius 22.22517355000267
rwrist 9.578271309400723
rhand -18.452403133517862 22.795383103306254
rfingers 7.125019999999999
rthumb 7.745027909824105 -7.114312257800857
47
root 0.33732474770231835 17.925516167095836 4.949142365751726 -2.057378065893522 1.2286772737942522 -1.1189248411007138
lfemur 9.052945444424358 -5.723079260864456 -21.940341215488658
ltibia 38.26515262527002
lfoot -0.8659116787355385 -8.033835813664075
ltoes -3.4077539380574207
rfemur -24.267133950176387 5.0500759010389515 22.83398941930799
rtibia 38.01745601830515
rfoot -6.5506207267616645 -5.669184895132165
rtoes 5.081926454639683
lowerback 9.377310400861878 -1.1302551070448055 -0.5182604914672491
upperback 0.25397341820101343 -1.0602314670023851 2.4176691224573226
thorax -4.946436250108163 -0.4811495350785228 2.732767323514931
lowerneck -16.204850006986113 -2.5806032533345378 -2.206333052746606
upperneck 22.613574847789028 -2.991120001251845 0.40144982944734137
head 9.605695981485155 -1.5954601928200485 -0.0171627915084126
lclavicle -1.3879679691052737e-15 -1.844200304670746e-15
lhumerus -28.665921581465312 0.8207305405594192 82.6303400320061
lradius 25.839614820901645
lwrist 4.876930845627284
lhand -27.64403137632873 23.637344972805465
lfingers 7.125019999999999
lthumb -0.859177373610829 53.90894221932415
rclavicle -1.3889733821854172e-15 -1.8451345537490753e-15
rhumerus -36.92328332519552 -33.17020511624152 -67.76243557862992
rradius 21.941744962921756
rwrist 9.999711325240787
rhand -18.445988917276985 22.752047200588017
rfingers 7.125019999999999
rthumb 7.808343149707307 -7.1051166703969475
48
root 0.26639704519223417 17.991432992759076 5.669910108821525 -2.450876152507206 0.9873660836689526 -2.3027849233119864
lfemur 4.131478716999245 -4.451499005601068 -19.395938166352035
ltibia 44.94038355586669
lfoot -0.7271374255762328 -7.913079956324399
ltoes -3.6232299573288222
rfemur -22.115267417047868 5.199992821130829 24.659738398482116
rtibia 38.896362599278696
rfoot -6.708583719149599 -4.831555709619389
rtoes 5.164097850103248
lowerback 9.426720838502664 -0.987613574451047 0.39942855485359785
upperback 0.2918889987407863 -0.6628069878433616 2.573776598636016
thorax -4.986622035370812 -0.3116649569835784 2.311389310139041
lowerneck -16.161885299539783 -2.5733637437948627 -2.1641295986604465
upperneck 22.38803227198958 -3.053197272820991 0.4215683472432593
head 9.540666126351267 -1.6315049120822187 -0.029130216722782487
lclavicle -1.387967969675382e-15 -1.8442003052005014e-15
lhumerus -30.028624245199726 0.964232850650335 82.91797885619985
lradius 24.907785364803043
lwrist 4.283440808594197
lhand -27.580346699551235 23.784617216079788
lfingers 7.125019999999999
lthumb -0.8038464912350967 54.02318838719982
rclavicle -1.3889733822380707e-15 -1.8451345537980016e-15
rhumerus -36.02423817498216 -32.76971573139534 -68.44829974073893
rradius 21.832545286525104
rwrist 10.173353508701883
rhand -18.40712909496108 22.775430281800737
rfingers 7.125019999999999
rthumb 7.8340180347543615 -7.110835496622147
